<svg xmlns="http://www.w3.org/2000/svg" width="36" height="31.5" viewBox="0 0 36 31.5">
  <path id="Icon_awesome-binoculars" data-name="Icon awesome-binoculars" d="M29.25,3.375A1.125,1.125,0,0,0,28.125,2.25h-4.5A1.125,1.125,0,0,0,22.5,3.375V6.75h6.75ZM4.494,11.249C4.317,17.848.243,19.281,0,28.406V31.5a2.25,2.25,0,0,0,2.25,2.25H9a2.25,2.25,0,0,0,2.25-2.25V20.25H13.5V9H6.739A2.272,2.272,0,0,0,4.494,11.249Zm27.013,0A2.272,2.272,0,0,0,29.261,9H22.5V20.25h2.25V31.5A2.25,2.25,0,0,0,27,33.75h6.75A2.25,2.25,0,0,0,36,31.5V28.406c-.243-9.125-4.317-10.558-4.494-17.157Zm-19.131-9h-4.5A1.125,1.125,0,0,0,6.75,3.375V6.75H13.5V3.375A1.125,1.125,0,0,0,12.375,2.25Zm3.375,18h4.5V9h-4.5Z" transform="translate(0 -2.25)" fill="#fff"/>
</svg>
