<?xml version="1.0" encoding="utf-8"?>
<!-- Generator: Adobe Illustrator 26.3.1, SVG Export Plug-In . SVG Version: 6.00 Build 0)  -->
<svg version="1.1" id="Layer_1" xmlns="http://www.w3.org/2000/svg" xmlns:xlink="http://www.w3.org/1999/xlink" x="0px" y="0px"
	 viewBox="0 0 1080 1080" style="enable-background:new 0 0 1080 1080;" xml:space="preserve">
<style type="text/css">
	.st0{fill:#F5F6F0;}
</style>
<g>
	<path class="st0" d="M434.54,737.82c-11.64,11.21-20.32,12.14-20.32,12.14c-4.52,0-8.13-2.41-8.13-9.93
		c0-12.93,14.74-26.76,14.74-33.08c0-4.51-6.01-11.73-9.62-11.73c-1.8,0-3.01,3.32-12.63,15.65
		c-19.84,25.26-39.99,43.59-48.11,43.59c-2.71,0-5.1-2.11-5.1-8.12c0-22.86,43.59-75.18,79.98-75.18c2.41,0,4.52,0.6,6.02,1.21
		c2.71,1.2,4.2-0.91,2.4-3.32c-3-4.21-8.12-7.21-17.14-7.21c-32.84,0-75.15,33.76-88.77,65.52c-10.78,12.23-26.64,26.48-40.78,26.48
		c-8.38,0-14.25-4.61-14.25-16.77c0-28.08,20.12-44.85,20.12-61.2c0-7.13-5.45-13.83-13.83-13.83c-24.73,0-76.29,61.2-90.12,81.74
		c0.84-26.41,41.08-74.61,41.08-97.24c0-11.73-10.48-20.12-20.96-20.12c-22.21,0-54.07,36.05-99.76,93.47
		c5.03-11.74,11.31-28.5,11.31-36.89c0-11.74-12.99-20.54-19.28-20.54c-2.94,0-3.78,1.26-3.78,4.61
		c-1.26,31.85-37.3,83.41-37.3,102.69c0,9.64,7.54,18.86,14.26,18.86c10.06,0,19.28-25.15,38.56-53.23
		c26.83-39.82,73.77-93.05,85.09-93.05c1.68,0,2.94,1.26,2.94,4.19c0,15.51-35.63,71.68-35.63,99.76
		c0,17.61,12.99,23.48,17.61,23.48c5.44,0,7.54-7.97,12.57-15.93c14.67-25.57,60.78-74.19,67.91-74.19c0.84,0,1.67,0.84,1.67,2.51
		c0,7.55-18.02,28.08-18.02,57.42c0,16.35,12.99,27.67,29.76,27.67c16.22,0,33.42-12.08,46.71-25.35c-0.2,1.6-0.31,3.18-0.31,4.73
		c0,14.13,9.02,19.54,16.83,19.54c15.11,0,34.55-17.57,50.12-35.54c0.51-0.59,1.46-0.06,1.24,0.69c-0.83,2.87-1.14,5.48-1.14,8.69
		c0,10.82,7.83,18.93,18.95,18.64c19.63-0.5,28.23-14.98,28.23-14.98S446.18,726.61,434.54,737.82z"/>
	<path class="st0" d="M511.83,683.19c8.65,0,11.64,2.69,13.43,2.69c1.19,0,2.09-0.9,2.09-2.99c0-5.67-6.57-17.31-24.47-17.31
		c-18.21,0-46.86,14.03-46.86,37.01c0,20.3,22.39,29.55,22.39,46.27c0,5.97-3.29,11.04-10.75,11.04c-8.36,0-17.61-5.97-21.79-13.73
		c-0.6-1.2-1.2-2.09-2.09-2.09s-1.79,0.6-1.79,2.99c0,8.95,11.34,27.46,30.15,27.46c12.54,0,20.6-8.06,20.6-19.1
		c0-17.01-20.6-23.88-20.6-42.38C472.13,692.14,494.81,683.19,511.83,683.19z"/>
	<path class="st0" d="M1011.45,715.43c-0.9,0-1.79,0.3-3.58,2.99c-7.76,10.75-28.36,37.31-45.37,37.31c-5.97,0-8.66-3.28-8.66-10.15
		c0-13.43,7.76-29.85,31.34-60c3.59-4.48,5.08-5.67,5.08-7.46c0-2.98-6.57-9.25-11.34-9.25c-10.01,0-26.32,24.06-35.61,45.76
		c-0.25,0.32-0.51,0.67-0.8,1.11c-11.05,15.82-35.22,46.27-50.15,46.27c-6.86,0-10.45-4.18-10.45-13.73
		c0-25.07,19.59-67.23,38.21-96.4c2.48-3.88,5.3-7.51,8.42-10.9c1.89-2.06,4.01-4.13,6.33-6.02c1.54-1.25,3.21-2.35,4.96-3.29
		c2.49-1.33,3.56-1.74,3.56-3.12c0-2.39-5.38-7.76-12.54-7.76c-5.39,0-12.23,1.74-17.44,6.5c-5.77,5.26-10.58,11.46-14.46,18.23
		c-17.63,30.77-34.36,72.71-34.36,98.88c0,19.1,9.85,28.06,22.09,28.06c17.08,0,36.61-21.34,50.96-41.57
		c-0.91,3.63-1.41,6.91-1.41,9.63c0,17.61,8.95,25.67,20,25.67c21.19,0,45.07-29.25,54.92-44.77c0.9-1.49,2.09-2.99,2.09-4.18
		C1013.24,716.02,1012.34,715.43,1011.45,715.43z"/>
	<path class="st0" d="M1011.15,618.12c-5.97-1.19-14.92,8.66-16.71,18.51c-1.2,6.87,3.28,11.34,8.06,12.24
		c5.67,0.9,15.52-9.85,17.01-17.91C1020.7,625.58,1016.22,619.01,1011.15,618.12z"/>
	<path class="st0" d="M623.78,740.6c-11.64,11.21-20.32,12.14-20.32,12.14c-4.52,0-8.13-2.41-8.13-9.93
		c0-12.93,14.74-26.76,14.74-33.08c0-4.51-6.01-11.73-9.62-11.73c-1.8,0-3.01,3.32-12.63,15.65
		c-19.84,25.26-39.99,43.59-48.11,43.59c-2.71,0-5.1-2.11-5.1-8.12c0-22.86,43.59-75.18,79.98-75.18c2.41,0,4.52,0.6,6.02,1.21
		c2.71,1.2,4.2-0.91,2.4-3.32c-3-4.21-8.12-7.21-17.14-7.21c-39.69,0-93.21,49.31-93.21,84.8c0,14.13,9.02,19.54,16.83,19.54
		c15.11,0,34.55-17.57,50.12-35.54c0.51-0.59,1.46-0.06,1.24,0.69c-0.83,2.87-1.14,5.48-1.14,8.69c0,10.82,7.83,18.93,18.95,18.64
		c19.63-0.5,28.23-14.98,28.23-14.98S635.42,729.39,623.78,740.6z"/>
	<path class="st0" d="M851.82,741.32c-11.64,11.21-20.32,12.14-20.32,12.14c-4.52,0-8.13-2.41-8.13-9.93
		c0-12.93,14.74-26.76,14.74-33.08c0-4.51-6.01-11.73-9.62-11.73c-1.8,0-3.01,3.32-12.63,15.65
		c-19.84,25.26-39.99,43.59-48.11,43.59c-2.71,0-5.1-2.11-5.1-8.12c0-22.86,43.59-75.18,79.98-75.18c2.41,0,4.52,0.6,6.02,1.21
		c2.71,1.2,4.2-0.91,2.4-3.32c-3-4.21-8.12-7.21-17.14-7.21c-34.11,0-78.44,36.42-90.22,69.19c-9.07,7.54-19.6,13.13-30.92,13.13
		c-13.73,0-26.26-9.85-35.82-28.65c6.86-6.57,13.43-11.94,18.21-15.82c22.98-18.51,32.83-21.79,49.84-23.58
		c0.9,0,1.79-0.6,1.79-1.19c0-3.58-11.64-10.75-19.4-10.75c-14.93,0-45.07,29.85-76.11,67.76c11.51-52.63,33.73-83.55,56.11-97.87
		c2.99-1.79,4.18-2.69,4.18-3.88c0-2.69-5.97-8.36-13.13-8.36c-32.24,0-65.67,95.78-65.67,136.08c0,11.64,5.08,13.43,6.87,13.43
		c4.18,0,4.18-11.64,8.95-21.49c4.18-9.25,13.43-19.7,22.98-29.25c3.88,20.3,13.73,40.3,32.84,40.3c12.44,0,25.18-7.92,36.54-18.44
		c-0.16,1.42-0.25,2.82-0.25,4.2c0,14.13,9.02,19.54,16.83,19.54c15.11,0,34.55-17.57,50.12-35.54c0.51-0.59,1.46-0.06,1.24,0.69
		c-0.83,2.87-1.14,5.48-1.14,8.69c0,10.82,7.83,18.93,18.95,18.64c19.63-0.5,28.23-14.98,28.23-14.98S863.46,730.1,851.82,741.32z"
		/>
</g>
<path class="st0" d="M540.01,220.33c-106.48,0-192.8,86.32-192.8,192.8c0,106.46,86.32,192.78,192.8,192.78
	c106.46,0,192.78-86.32,192.78-192.78C732.79,306.65,646.47,220.33,540.01,220.33z M519.14,310.71c5.98,3.33,13.13,5.26,20.84,5.26
	c9.21,0,17.67-2.78,24.24-7.38h0.03c14.9,5.88,25.12,18.13,25.12,32.28c0,10.98-6.2,20.8-15.95,27.41
	c-1.35,0.93-2.77,1.79-4.25,2.57c-0.14,0.07-0.28,0.13-0.42,0.2c-1.32,0.69-2.69,1.32-4.1,1.88c-6.18,2.52-13.17,3.97-20.59,3.97
	c-4.34,0-8.51-0.51-12.48-1.41c-0.74-0.17-1.48-0.36-2.2-0.55c-0.61-0.17-1.22-0.34-1.82-0.53c-0.69-0.21-1.38-0.44-2.06-0.68
	c-0.68-0.24-1.35-0.5-2.02-0.77c-0.54-0.22-1.08-0.44-1.61-0.67c-0.82-0.37-1.61-0.75-2.4-1.16c-0.36-0.18-0.73-0.36-1.08-0.56
	c-11.88-6.5-19.68-17.37-19.68-29.7C498.72,328.25,506.86,317.18,519.14,310.71z M517.93,301.46c-4.84-4.77-7.74-11.01-7.74-17.81
	c0-15.13,14.47-27.41,32.31-27.41c17.84,0,32.31,12.28,32.31,27.41c0,7.45-3.5,14.21-9.18,19.14c-1.8,1.57-3.86,2.97-6.08,4.15
	c-4.97,2.61-10.78,4.12-17.05,4.12c-5.75,0-11.17-1.27-15.84-3.53C523.32,305.97,520.38,303.91,517.93,301.46z M515.53,381.27
	c7.38,2.9,15.66,4.58,24.45,4.58c14.29,0,27.27-4.35,37.1-11.42c29.69,4.94,51.44,21.08,51.44,40.26c0,13.54-10.86,25.58-27.7,33.23
	c0,0,0,0-0.01,0c-1.48,0.69-3.02,1.32-4.6,1.92c-0.2,0.08-0.4,0.15-0.61,0.23c-1.61,0.6-3.26,1.16-4.96,1.67
	c0.02,0,0.03,0.01,0.05,0.01c-9.8,3.05-20.95,4.79-32.79,4.79c-14.14,0-27.3-2.48-38.35-6.73c0.01,0,0.02,0,0.02,0
	c-3.49-1.33-6.75-2.84-9.77-4.51c-0.06-0.03-0.12-0.07-0.18-0.1c-3-1.67-5.76-3.49-8.24-5.46c0,0-0.01,0-0.01,0
	c-8.83-6.99-14.07-15.66-14.07-25.06C487.32,401,498.42,388.89,515.53,381.27z M501.76,453.73c13.53,5.89,30.24,9.38,48.31,9.38
	c18.09,0,34.81-3.5,48.35-9.4c32.09,8.93,53.94,26.41,53.94,46.54c0,9.61-4.99,18.61-13.68,26.38
	c-7.63,5.54-15.74,10.46-24.26,14.68c-17.58,7.36-39.96,11.77-64.35,11.77c-56.49,0-102.29-23.65-102.29-52.83
	C447.79,480.13,469.67,462.64,501.76,453.73z M651.11,516.69c2.74-5.24,4.23-10.74,4.23-16.43c0-20.64-19.33-38.97-49.17-50.39
	c15.76-8.83,25.61-21.32,25.61-35.18c0-19.98-20.41-37.09-49.52-44.49c8.15-7.67,13.09-17.57,13.09-28.4
	c0-15.81-10.49-29.66-26.2-37.41c5.59-5.59,8.92-12.84,8.92-20.75c0-17.84-17.05-32.31-38.09-32.31
	c-21.01,0-38.06,14.47-38.06,32.31c0,7.91,3.36,15.13,8.89,20.75c-15.71,7.74-26.17,21.59-26.17,37.41
	c0,13.19,7.33,25.01,18.9,33.08c-21.23,8.75-35.17,23.31-35.17,39.8c0,10.58,5.75,20.37,15.49,28.34
	c-41.98,9.78-71.25,31.52-71.55,56.83c-25.21-29.4-40.47-67.58-40.47-109.34c0-92.88,75.29-168.17,168.17-168.17
	c92.86,0,168.15,75.29,168.15,168.17C708.16,440.79,686.07,485.87,651.11,516.69z"/>
<g>
	<path class="st0" d="M353.12,814.91c2.55,0,4.76,0.25,6.64,0.76c1.87,0.51,3.43,1.25,4.65,2.23c1.23,0.98,2.13,2.18,2.72,3.59
		c0.59,1.41,0.89,3.02,0.89,4.81c0,1.18-0.21,2.32-0.62,3.41s-1,2.11-1.77,3.04c-0.77,0.93-1.72,1.73-2.85,2.42
		c-1.13,0.68-2.42,1.21-3.88,1.57c3.52,0.51,6.22,1.67,8.11,3.5c1.89,1.83,2.83,4.22,2.83,7.2c0,1.9-0.34,3.6-1.01,5.12
		c-0.67,1.52-1.65,2.81-2.94,3.86c-1.29,1.06-2.87,1.86-4.75,2.42c-1.87,0.56-4.01,0.84-6.39,0.84h-14.52v-44.76H353.12z
		 M343.5,817.47v18.37h9.68c2.06,0,3.83-0.26,5.3-0.79c1.47-0.53,2.67-1.23,3.61-2.09c0.94-0.86,1.63-1.84,2.07-2.94
		c0.44-1.1,0.66-2.22,0.66-3.39c0-3.01-0.95-5.3-2.86-6.85c-1.91-1.55-4.85-2.32-8.84-2.32H343.5z M354.73,857.08
		c3.92,0,6.89-0.85,8.91-2.55c2.01-1.69,3.02-4.08,3.02-7.16c0-1.42-0.27-2.68-0.8-3.81c-0.54-1.13-1.31-2.09-2.33-2.88
		c-1.01-0.79-2.26-1.4-3.73-1.82c-1.48-0.42-3.15-0.63-5.03-0.63H343.5v18.85H354.73z"/>
	<path class="st0" d="M413.69,859.67h-2.5c-0.3,0-0.54-0.08-0.73-0.24c-0.19-0.16-0.33-0.37-0.44-0.62l-5.25-13h-21.98l-5.25,13
		c-0.08,0.23-0.23,0.43-0.44,0.6c-0.21,0.16-0.46,0.25-0.76,0.25h-2.47l18.31-44.76h3.2L413.69,859.67z M403.79,843.41l-9.11-22.62
		c-0.31-0.74-0.62-1.63-0.92-2.66c-0.12,0.5-0.26,0.98-0.41,1.44c-0.14,0.45-0.3,0.87-0.47,1.25l-9.11,22.59H403.79z"/>
	<path class="st0" d="M445.58,856.92v2.75h-24.45v-44.76h3.26v42.01H445.58z"/>
	<path class="st0" d="M456.4,859.67h-3.26v-44.76h3.26V859.67z"/>
	<path class="st0" d="M517.67,859.67h-2.79c-0.36,0-0.66-0.06-0.9-0.18c-0.24-0.12-0.47-0.33-0.68-0.65l-14.36-18.16
		c-0.16-0.23-0.34-0.43-0.52-0.6c-0.18-0.17-0.38-0.3-0.6-0.4c-0.22-0.1-0.48-0.16-0.79-0.21c-0.31-0.04-0.68-0.06-1.12-0.06h-5.85
		v20.24h-3.26v-44.76h11.45c5.15,0,9,1,11.56,2.99s3.84,4.92,3.84,8.78c0,1.7-0.29,3.27-0.89,4.68c-0.59,1.41-1.44,2.65-2.54,3.72
		c-1.11,1.07-2.45,1.94-4.02,2.61c-1.57,0.67-3.34,1.13-5.3,1.36c0.51,0.31,0.96,0.74,1.36,1.27L517.67,859.67z M497.8,837.02
		c1.98,0,3.76-0.24,5.33-0.72c1.58-0.47,2.9-1.15,3.99-2.04c1.09-0.89,1.91-1.95,2.48-3.19c0.57-1.25,0.85-2.65,0.85-4.21
		c0-3.18-1.04-5.54-3.11-7.08c-2.08-1.54-5.11-2.31-9.1-2.31h-8.19v19.55H497.8z"/>
	<path class="st0" d="M552.08,856.98l-0.06,2.69H525.2v-44.76h26.82v2.69h-23.56v18.1h19.61v2.63h-19.61v18.66H552.08z"/>
	<path class="st0" d="M590.99,817.67h-15.72v42.01h-3.26v-42.01H556.2v-2.75h34.8V817.67z"/>
	<path class="st0" d="M629.4,859.67h-2.79c-0.36,0-0.66-0.06-0.9-0.18c-0.24-0.12-0.47-0.33-0.68-0.65l-14.36-18.16
		c-0.16-0.23-0.34-0.43-0.52-0.6c-0.18-0.17-0.38-0.3-0.6-0.4c-0.22-0.1-0.48-0.16-0.79-0.21c-0.31-0.04-0.68-0.06-1.12-0.06h-5.85
		v20.24h-3.26v-44.76h11.45c5.15,0,9,1,11.56,2.99s3.84,4.92,3.84,8.78c0,1.7-0.29,3.27-0.89,4.68c-0.59,1.41-1.44,2.65-2.54,3.72
		c-1.11,1.07-2.45,1.94-4.02,2.61c-1.57,0.67-3.34,1.13-5.3,1.36c0.51,0.31,0.96,0.74,1.36,1.27L629.4,859.67z M609.53,837.02
		c1.98,0,3.76-0.24,5.33-0.72c1.58-0.47,2.9-1.15,3.99-2.04c1.09-0.89,1.91-1.95,2.48-3.19c0.57-1.25,0.85-2.65,0.85-4.21
		c0-3.18-1.04-5.54-3.11-7.08c-2.08-1.54-5.11-2.31-9.1-2.31h-8.19v19.55H609.53z"/>
	<path class="st0" d="M663.81,856.98l-0.06,2.69h-26.82v-44.76h26.82v2.69h-23.56v18.1h19.61v2.63h-19.61v18.66H663.81z"/>
	<path class="st0" d="M707.65,859.67h-2.5c-0.3,0-0.54-0.08-0.73-0.24c-0.19-0.16-0.33-0.37-0.44-0.62l-5.25-13h-21.98l-5.25,13
		c-0.08,0.23-0.23,0.43-0.44,0.6c-0.21,0.16-0.46,0.25-0.76,0.25h-2.47l18.31-44.76h3.2L707.65,859.67z M697.75,843.41l-9.11-22.62
		c-0.31-0.74-0.62-1.63-0.92-2.66c-0.12,0.5-0.26,0.98-0.41,1.44c-0.14,0.45-0.3,0.87-0.47,1.25l-9.11,22.59H697.75z"/>
	<path class="st0" d="M739.76,817.67h-15.72v42.01h-3.26v-42.01h-15.82v-2.75h34.8V817.67z"/>
</g>
</svg>
